<!-- Logo CertiSafe - Shield con Check Mark -->
<svg width="100" height="100" viewBox="0 0 100 100" xmlns="http://www.w3.org/2000/svg">
  <defs>
    <linearGradient id="shieldGradient" x1="0%" y1="0%" x2="100%" y2="100%">
      <stop offset="0%" style="stop-color:#667eea;stop-opacity:1" />
      <stop offset="50%" style="stop-color:#764ba2;stop-opacity:1" />
      <stop offset="100%" style="stop-color:#f093fb;stop-opacity:1" />
    </linearGradient>
    <filter id="shadow" x="-50%" y="-50%" width="200%" height="200%">
      <dropShadow dx="2" dy="4" stdDeviation="3" flood-color="rgba(0,0,0,0.3)"/>
    </filter>
  </defs>
  
  <!-- Escudo principal -->
  <path d="M50 10 
           C65 10 77.5 12.5 87.5 17.5
           C87.5 25 87.5 35 85 45
           C82.5 55 77.5 65 70 72.5
           C65 77.5 60 80 50 82.5
           C40 80 35 77.5 30 72.5
           C22.5 65 17.5 55 15 45
           C12.5 35 12.5 25 12.5 17.5
           C22.5 12.5 35 10 50 10 Z" 
        fill="url(#shieldGradient)" 
        filter="url(#shadow)"
        stroke="rgba(255,255,255,0.3)" 
        stroke-width="1"/>
  
  <!-- Check mark -->
  <path d="M35 47.5 L45 57.5 L65 37.5" 
        stroke="white" 
        stroke-width="5" 
        fill="none" 
        stroke-linecap="round" 
        stroke-linejoin="round"
        filter="url(#shadow)"/>
</svg>